# xmcd
#
# Track frame offsets: 
#        150
#        15039
#        29035
#        42955
#        57632
#        70646
#        84437
#        97611
#        112255
#        123943
#        137417
#        150224
#        163821
#        177195
#        191461
#        205048
#        218539
#        229384
#        242617
#        256297
#        269239
#        281821
#        293596
#
# Disc length: 4070 seconds
#
# Revision: 0
# Processed by: cddbd v1.5.2PL0 Copyright (c) Steve Scherf et al.
# Submitted via: ExactAudioCopyFreeDBPlugin 1.0
#
DISCID=3d0fe417
DTITLE=Walter Roland - Complete Recorded Works Vol. 1 (1933)
DYEAR=1994
DGENRE=Blues
TTITLE0=Red Cross Blues
TTITLE1=Red Cross Blues No.2
TTITLE2=T Model Blues
TTITLE3=Man, Man, Man (Sonny Scott)
TTITLE4=No Good Biddie (Sonny Scott)
TTITLE5=You Gonna Need Me
TTITLE6=Slavin' Blues
TTITLE7=Last Year Blues
TTITLE8=Early This Morning (Sonny Scott)
TTITLE9=Working Man's Moan (Sonny Scott)
TTITLE10=Rolling Water (Sonny Scott)
TTITLE11=Jookit Jookit
TTITLE12=Piano Stomp
TTITLE13=Back Door Blues
TTITLE14=Guitar Stomp
TTITLE15=Railroad Stomp
TTITLE16=Frisco Blues
TTITLE17=House Lady Blues
TTITLE18=Whatcha Gonna Do
TTITLE19=Early This Morning ('Bout Break Of Day)
TTITLE20=Hungry Man's Scuffle
TTITLE21=Come On Down
TTITLE22=Overall Blues
EXTD=
EXTT0=
EXTT1=
EXTT2=
EXTT3=
EXTT4=
EXTT5=
EXTT6=
EXTT7=
EXTT8=
EXTT9=
EXTT10=
EXTT11=
EXTT12=
EXTT13=
EXTT14=
EXTT15=
EXTT16=
EXTT17=
EXTT18=
EXTT19=
EXTT20=
EXTT21=
EXTT22=
PLAYORDER=
